<svg width="55" height="55" viewBox="0 0 55 55" fill="none" xmlns="http://www.w3.org/2000/svg">
<path d="M53.25 27.5C53.25 34.3293 50.5371 40.8789 45.708 45.708C40.8789 50.5371 34.3293 53.25 27.5 53.25C20.6707 53.25 14.1211 50.5371 9.292 45.708C4.46294 40.8789 1.75 34.3293 1.75 27.5C1.75 20.6707 4.46294 14.1211 9.292 9.292C14.1211 4.46294 20.6707 1.75 27.5 1.75C34.3293 1.75 40.8789 4.46294 45.708 9.292C50.5371 14.1211 53.25 20.6707 53.25 27.5Z" fill="white" stroke="#383838" stroke-width="3.5"/>
<g clip-path="url(#clip0_55_5)">
<path d="M31.3637 8.3875C30.228 4.5375 24.772 4.5375 23.6362 8.3875L23.3612 9.3225C23.1916 9.89889 22.895 10.43 22.4933 10.8768C22.0917 11.3237 21.5951 11.675 21.04 11.9049C20.4849 12.1349 19.8853 12.2377 19.2853 12.2058C18.6853 12.1738 18.1001 12.008 17.5725 11.7205L16.72 11.253C13.1917 9.3335 9.3335 13.1918 11.2557 16.7172L11.7205 17.5725C12.947 19.8275 11.7837 22.6352 9.3225 23.3612L8.3875 23.6362C4.5375 24.772 4.5375 30.228 8.3875 31.3637L9.3225 31.6388C9.89889 31.8084 10.43 32.105 10.8768 32.5067C11.3237 32.9083 11.675 33.4049 11.9049 33.96C12.1349 34.5151 12.2377 35.1147 12.2058 35.7147C12.1738 36.3147 12.008 36.8999 11.7205 37.4275L11.253 38.28C9.3335 41.8083 13.1918 45.6665 16.7172 43.7442L17.5725 43.2795C18.1001 42.992 18.6853 42.8262 19.2853 42.7942C19.8853 42.7623 20.4849 42.8651 21.04 43.0951C21.5951 43.325 22.0917 43.6763 22.4933 44.1232C22.895 44.57 23.1916 45.1011 23.3612 45.6775L23.6362 46.6125C24.772 50.4625 30.228 50.4625 31.3637 46.6125L31.6388 45.6775C31.8084 45.1011 32.105 44.57 32.5067 44.1232C32.9083 43.6763 33.4049 43.325 33.96 43.0951C34.5151 42.8651 35.1147 42.7623 35.7147 42.7942C36.3147 42.8262 36.8999 42.992 37.4275 43.2795L38.28 43.747C41.8083 45.6665 45.6665 41.8082 43.7442 38.2827L43.2795 37.4275C42.992 36.8999 42.8262 36.3147 42.7942 35.7147C42.7623 35.1147 42.8651 34.5151 43.0951 33.96C43.325 33.4049 43.6763 32.9083 44.1232 32.5067C44.57 32.105 45.1011 31.8084 45.6775 31.6388L46.6125 31.3637C50.4625 30.228 50.4625 24.772 46.6125 23.6362L45.6775 23.3612C45.1011 23.1916 44.57 22.895 44.1232 22.4933C43.6763 22.0917 43.325 21.5951 43.0951 21.04C42.8651 20.4849 42.7623 19.8853 42.7942 19.2853C42.8262 18.6853 42.992 18.1001 43.2795 17.5725L43.747 16.72C45.6665 13.1917 41.8082 9.3335 38.2827 11.2557L37.4275 11.7205C36.8999 12.008 36.3147 12.1738 35.7147 12.2058C35.1147 12.2377 34.5151 12.1349 33.96 11.9049C33.4049 11.675 32.9083 11.3237 32.5067 10.8768C32.105 10.43 31.8084 9.89889 31.6388 9.3225L31.3637 8.3875ZM27.5 35.5575C25.363 35.5575 23.3136 34.7086 21.8025 33.1975C20.2914 31.6864 19.4425 29.637 19.4425 27.5C19.4425 25.363 20.2914 23.3136 21.8025 21.8025C23.3136 20.2914 25.363 19.4425 27.5 19.4425C29.6363 19.4425 31.685 20.2911 33.1956 21.8017C34.7061 23.3122 35.5547 25.361 35.5547 27.4973C35.5547 29.6335 34.7061 31.6823 33.1956 33.1928C31.685 34.7034 29.6363 35.552 27.5 35.552V35.5575Z" fill="#383838"/>
</g>
<defs>
<clipPath id="clip0_55_5">
<rect width="44" height="44" fill="white" transform="translate(5.5 5.5)"/>
</clipPath>
</defs>
</svg>
