<svg width="80" height="80" viewBox="0 0 80 80" fill="none" xmlns="http://www.w3.org/2000/svg">
<path d="M80 40C80 50.6087 75.7857 60.7828 68.2843 68.2843C60.7828 75.7857 50.6087 80 40 80C29.3913 80 19.2172 75.7857 11.7157 68.2843C4.21427 60.7828 0 50.6087 0 40C0 29.3913 4.21427 19.2172 11.7157 11.7157C19.2172 4.21427 29.3913 0 40 0C50.6087 0 60.7828 4.21427 68.2843 11.7157C75.7857 19.2172 80 29.3913 80 40ZM26.77 23.23C26.3006 22.7606 25.6639 22.4968 25 22.4968C24.3361 22.4968 23.6994 22.7606 23.23 23.23C22.7606 23.6994 22.4968 24.3361 22.4968 25C22.4968 25.6639 22.7606 26.3006 23.23 26.77L36.465 40L23.23 53.23C22.9976 53.4624 22.8132 53.7384 22.6874 54.0421C22.5616 54.3458 22.4968 54.6713 22.4968 55C22.4968 55.3287 22.5616 55.6542 22.6874 55.9579C22.8132 56.2616 22.9976 56.5376 23.23 56.77C23.6994 57.2394 24.3361 57.5032 25 57.5032C25.3287 57.5032 25.6542 57.4384 25.9579 57.3126C26.2616 57.1868 26.5376 57.0024 26.77 56.77L40 43.535L53.23 56.77C53.4624 57.0024 53.7384 57.1868 54.0421 57.3126C54.3458 57.4384 54.6713 57.5032 55 57.5032C55.3287 57.5032 55.6542 57.4384 55.9579 57.3126C56.2616 57.1868 56.5376 57.0024 56.77 56.77C57.0024 56.5376 57.1868 56.2616 57.3126 55.9579C57.4384 55.6542 57.5032 55.3287 57.5032 55C57.5032 54.6713 57.4384 54.3458 57.3126 54.0421C57.1868 53.7384 57.0024 53.4624 56.77 53.23L43.535 40L56.77 26.77C57.0024 26.5376 57.1868 26.2616 57.3126 25.9579C57.4384 25.6542 57.5032 25.3287 57.5032 25C57.5032 24.6713 57.4384 24.3458 57.3126 24.0421C57.1868 23.7384 57.0024 23.4624 56.77 23.23C56.5376 22.9976 56.2616 22.8132 55.9579 22.6874C55.6542 22.5616 55.3287 22.4968 55 22.4968C54.6713 22.4968 54.3458 22.5616 54.0421 22.6874C53.7384 22.8132 53.4624 22.9976 53.23 23.23L40 36.465L26.77 23.23Z" fill="black"/>
</svg>
