<svg width="246" height="246" viewBox="0 0 246 246" fill="none" xmlns="http://www.w3.org/2000/svg">
<rect x="0.5" y="0.5" width="245" height="245" fill="#D9D9D9" fill-opacity="0.5" stroke="black"/>
<g clip-path="url(#clip0_216_2)">
<path d="M163 123C163 133.609 158.786 143.783 151.284 151.284C143.783 158.786 133.609 163 123 163C112.391 163 102.217 158.786 94.7157 151.284C87.2143 143.783 83 133.609 83 123C83 112.391 87.2143 102.217 94.7157 94.7157C102.217 87.2143 112.391 83 123 83C133.609 83 143.783 87.2143 151.284 94.7157C158.786 102.217 163 112.391 163 123ZM125.5 105.5C125.5 104.837 125.237 104.201 124.768 103.732C124.299 103.263 123.663 103 123 103C122.337 103 121.701 103.263 121.232 103.732C120.763 104.201 120.5 104.837 120.5 105.5V120.5H105.5C104.837 120.5 104.201 120.763 103.732 121.232C103.263 121.701 103 122.337 103 123C103 123.663 103.263 124.299 103.732 124.768C104.201 125.237 104.837 125.5 105.5 125.5H120.5V140.5C120.5 141.163 120.763 141.799 121.232 142.268C121.701 142.737 122.337 143 123 143C123.663 143 124.299 142.737 124.768 142.268C125.237 141.799 125.5 141.163 125.5 140.5V125.5H140.5C141.163 125.5 141.799 125.237 142.268 124.768C142.737 124.299 143 123.663 143 123C143 122.337 142.737 121.701 142.268 121.232C141.799 120.763 141.163 120.5 140.5 120.5H125.5V105.5Z" fill="#383838"/>
</g>
<defs>
<clipPath id="clip0_216_2">
<rect width="80" height="80" fill="white" transform="translate(83 83)"/>
</clipPath>
</defs>
</svg>
