<svg width="100" height="100" viewBox="0 0 100 100" fill="none" xmlns="http://www.w3.org/2000/svg">
<path fill-rule="evenodd" clip-rule="evenodd" d="M65.561 9.32863C66.596 9.69996 67.3826 10.3493 67.7484 11.1343C68.1142 11.9193 68.0292 12.7758 67.5122 13.5161L42.251 49.6224L67.521 85.7224C67.7836 86.0896 67.9419 86.4904 67.9867 86.9016C68.0315 87.3128 67.9619 87.7262 67.7819 88.1181C67.602 88.51 67.3152 88.8725 66.9381 89.1848C66.561 89.4972 66.1012 89.7531 65.585 89.9379C65.0688 90.1226 64.5065 90.2326 63.9305 90.2614C63.3545 90.2902 62.7763 90.2373 62.229 90.1057C61.6818 89.9741 61.1765 89.7665 60.7422 89.4947C60.3079 89.223 59.9531 88.8925 59.6985 88.5224L33.4485 51.0224C33.1436 50.5878 32.9849 50.1084 32.9849 49.6224C32.9849 49.1363 33.1436 48.6569 33.4485 48.2224L59.6985 10.7224C60.2183 9.98308 61.1274 9.42119 62.2264 9.15993C63.3254 8.89866 64.5245 8.95932 65.561 9.32863Z" fill="#383838" fill-opacity="0.32"/>
</svg>
