<svg width="55" height="55" viewBox="0 0 55 55" fill="none" xmlns="http://www.w3.org/2000/svg">
<path d="M53.25 27.5C53.25 34.3293 50.5371 40.8789 45.708 45.708C40.8789 50.5371 34.3293 53.25 27.5 53.25C20.6707 53.25 14.1211 50.5371 9.292 45.708C4.46294 40.8789 1.75 34.3293 1.75 27.5C1.75 20.6707 4.46294 14.1211 9.292 9.292C14.1211 4.46294 20.6707 1.75 27.5 1.75C34.3293 1.75 40.8789 4.46294 45.708 9.292C50.5371 14.1211 53.25 20.6707 53.25 27.5Z" fill="white" stroke="#383838" stroke-width="3.5"/>
<path d="M48.8149 26.9283L39.9051 35.6931V31.8368H29.6948V22.3596H39.9093V18.1636L48.8149 26.9283ZM35.3281 15.0073H27.0935V11.9711H35.237C36.7364 11.9711 37.9501 13.3753 37.9501 15.1067V20.5453H35.3239L35.3281 15.0073ZM35.3281 33.1913H37.9542V40.2205C37.9542 41.956 36.7406 43.3602 35.2411 43.3602H27.0935V40.324H35.3281V33.1913Z" fill="#383838"/>
<path d="M24.2436 46.5L12.3308 41.0738C11.316 41.0738 10.5 39.8601 10.5 38.3607V16.6393C10.5 15.1399 11.316 13.9262 12.3308 13.9262L24.2436 8.5C25.2543 8.5 26.0786 9.71365 26.0786 11.2131V43.7869C26.0786 45.2864 25.2543 46.5 24.2436 46.5ZM21.2281 24.3313C19.9814 24.3313 18.9665 25.3461 18.9665 26.5929C18.9665 27.8438 19.9814 28.8545 21.2281 28.8545C22.4791 28.8545 23.4898 27.8438 23.4898 26.5929C23.4898 25.3461 22.4791 24.3313 21.2281 24.3313Z" fill="#383838"/>
</svg>
