<svg width="36" height="82" viewBox="0 0 36 82" fill="none" xmlns="http://www.w3.org/2000/svg">
<path fill-rule="evenodd" clip-rule="evenodd" d="M3.28999 0.706192C2.25496 1.07752 1.46833 1.72687 1.10255 2.51185C0.736774 3.29683 0.821712 4.15338 1.33874 4.89369L26.6 40.9999L1.32999 77.0999C1.06732 77.4672 0.909025 77.868 0.864235 78.2792C0.819445 78.6903 0.889044 79.1038 1.06902 79.4957C1.24899 79.8875 1.53577 80.2501 1.91284 80.5624C2.28991 80.8747 2.7498 81.1306 3.266 81.3154C3.78219 81.5002 4.34449 81.6101 4.92046 81.6389C5.49644 81.6678 6.07469 81.6148 6.6219 81.4833C7.16911 81.3517 7.67445 81.144 8.10877 80.8723C8.54309 80.6005 8.89781 80.2701 9.15248 79.8999L35.4025 42.3999C35.7073 41.9654 35.8661 41.486 35.8661 40.9999C35.8661 40.5139 35.7073 40.0345 35.4025 39.5999L9.15248 2.09994C8.63262 1.36064 7.72354 0.798758 6.62457 0.537489C5.52559 0.27622 4.32643 0.336888 3.28999 0.706192Z" fill="#383838" fill-opacity="0.32"/>
</svg>
