<svg width="36" height="82" viewBox="0 0 36 82" fill="none" xmlns="http://www.w3.org/2000/svg">
<path fill-rule="evenodd" clip-rule="evenodd" d="M32.71 0.706192C33.745 1.07752 34.5317 1.72687 34.8974 2.51185C35.2632 3.29683 35.1783 4.15338 34.6612 4.89369L9.4 40.9999L34.67 77.0999C34.9327 77.4672 35.091 77.868 35.1357 78.2792C35.1805 78.6903 35.1109 79.1038 34.931 79.4957C34.751 79.8875 34.4642 80.2501 34.0871 80.5624C33.7101 80.8747 33.2502 81.1306 32.734 81.3154C32.2178 81.5002 31.6555 81.6101 31.0795 81.6389C30.5035 81.6678 29.9253 81.6148 29.3781 81.4833C28.8309 81.3517 28.3255 81.144 27.8912 80.8723C27.4569 80.6005 27.1022 80.2701 26.8475 79.8999L0.5975 42.3999C0.292637 41.9654 0.133896 41.486 0.133896 40.9999C0.133896 40.5139 0.292637 40.0345 0.5975 39.5999L26.8475 2.09994C27.3674 1.36064 28.2764 0.798758 29.3754 0.537489C30.4744 0.27622 31.6736 0.336888 32.71 0.706192Z" fill="#383838" fill-opacity="0.32"/>
</svg>
