<svg width="100" height="100" viewBox="0 0 100 100" fill="none" xmlns="http://www.w3.org/2000/svg">
<path fill-rule="evenodd" clip-rule="evenodd" d="M34.439 9.32863C33.404 9.69996 32.6174 10.3493 32.2516 11.1343C31.8858 11.9193 31.9708 12.7758 32.4878 13.5161L57.749 49.6224L32.479 85.7224C32.2164 86.0896 32.0581 86.4904 32.0133 86.9016C31.9685 87.3128 32.0381 87.7262 32.2181 88.1181C32.398 88.51 32.6848 88.8725 33.0619 89.1848C33.439 89.4972 33.8988 89.7531 34.415 89.9379C34.9312 90.1226 35.4935 90.2326 36.0695 90.2614C36.6455 90.2902 37.2237 90.2373 37.771 90.1057C38.3182 89.9741 38.8235 89.7665 39.2578 89.4947C39.6921 89.223 40.0469 88.8925 40.3015 88.5224L66.5515 51.0224C66.8564 50.5878 67.0151 50.1084 67.0151 49.6224C67.0151 49.1363 66.8564 48.6569 66.5515 48.2224L40.3015 10.7224C39.7817 9.98308 38.8726 9.42119 37.7736 9.15993C36.6746 8.89866 35.4755 8.95932 34.439 9.32863Z" fill="#383838" fill-opacity="0.32"/>
</svg>
